<svg xmlns="http://www.w3.org/2000/svg" width="256" height="256"><path fill-opacity=".016" d="M0 128.004v128.004l128.25-.254 128.25-.254.254-127.75L257.008 0H0v128.004m.485.496c0 70.4.119 99.053.265 63.672.146-35.38.146-92.98 0-128C.604 29.153.485 58.1.485 128.5" fill="#1976D2" fill-rule="evenodd"/><path fill-opacity=".215" d="M22.004 80.75c.004 87.379.095 89.139 5.5 106.25 5.414 17.137 12.728 29.415 24.486 41.104 11.21 11.143 21.795 17.546 36.852 22.292 29.445 9.281 67.797 6.852 93.158-5.901 21.665-10.894 38.994-32.311 46.928-57.998 4.942-16 5.065-18.56 5.069-105.247L234 0H22l.004 80.75M125 54c-.901.582-1.025.975-.309.985.655.008 1.469-.435 1.809-.985.767-1.242.421-1.242-1.5 0" fill="#1976D2" fill-rule="evenodd"/><path fill-opacity=".472" d="M22 79.824c0 87.795.056 88.761 6.221 108.176 4.396 13.842 8.46 21.421 18.136 33.824 19.985 25.618 60.586 38.675 101.412 32.613 46.143-6.852 75.138-35.281 84.326-82.683 1.777-9.163 1.905-15.284 1.905-90.789V0H22v79.824M28 21v5h200V16H28v5m.004 77.25c.004 67.258.323 71.978 6.013 88.96C42.484 212.483 56.91 229.388 79 239.925c22.542 10.753 53.776 13.073 81.675 6.066 10.087-2.533 26.151-10.519 33.935-16.869 15.878-12.956 27.641-34.923 31.864-59.503 1.256-7.308 1.526-19.837 1.526-70.75V37H28l.004 61.25m84.39-47.728c-1.213 1.851-1.305 3.094-.463 6.223.953 3.536 1.323 3.871 3.868 3.498 1.847-.271 3.311.186 4.258 1.329 1.343 1.621 1.17 1.691-2.51 1.001-2.175-.407-5.662-1.612-7.75-2.677-4.524-2.307-4.967-1.058-.852 2.404 1.619 1.363 2.702 2.719 2.407 3.015-.966.966 5.471 3.685 8.723 3.685 3.038 0 3.147.138 2.535 3.198-.351 1.759-2.222 5.496-4.156 8.304-1.934 2.808-3.792 6.808-4.13 8.889-.338 2.081-1.279 4.038-2.091 4.35-2.239.859-15.182-2.484-21.88-5.651-9.321-4.408-13.244-10.21-12.018-17.768.767-4.726 1.214-5.019 4.6-3.019 7.65 4.519 18.669-1.569 15.057-8.319-2.723-5.088-10.386-7.197-17.999-4.955-1.921.566-6.081 1.112-9.243 1.214-3.162.101-5.748.426-5.745.721.003.295 1.071 1.868 2.374 3.497l2.369 2.961-2.124 2.871c-2.073 2.803-2.131 3.861-2.403 44.04-.153 22.642-.153 48.565 0 57.608l.279 16.44 3.75-3.294 3.75-3.294v-40.956c0-27.049.34-40.745 1-40.337.639.395 1 14.872 1 40.143v39.525L79 172l4-3.168v-33.416c0-21.611.353-33.416 1-33.416.646 0 1 11.528 1 32.584v32.584L89 164l4-3.168v-27.416c0-17.611.358-27.416 1-27.416.641 0 1 9.333 1 26 0 14.3.362 26 .804 26 .442 0 2.242-1.484 4-3.298l3.196-3.297v-21.703c0-13.801.364-21.702 1-21.702.635 0 1 7.682 1 21.047v21.047l4-3.214 4-3.215.128-17.082.128-17.083 1.393 11c.766 6.05 1.985 13.348 2.709 16.218 1.311 5.194 1.304 5.232-1.615 8-1.612 1.53-6.152 6.343-10.087 10.695-6.365 7.038-6.856 7.856-4.441 7.395l2.714-.517-1.891 2.604c-1.041 1.433-3.162 4.073-4.715 5.868l-2.823 3.263-5.058-2.378c-4.878-2.293-5.135-2.315-7.25-.603-1.519 1.231-2.192 2.877-2.192 5.365 0 3.969.426 4.307 2.643 2.09 1.525-1.525 7.36-2.12 7.354-.75-.002.412-2.477 2.084-5.5 3.715-3.024 1.631-5.497 3.013-5.497 3.072 0 .059.717 2.212 1.594 4.785C82.408 194.647 84 195.431 84 191c0-1.761.525-3 1.272-3 .7 0 2.95-1.383 5-3.073L94 181.854v7.048c0 6.792.107 7.102 2.95 8.572 1.623.839 3.143 1.526 3.378 1.526.656 0 .006-12.144-.817-15.25-.854-3.228-.68-3.275 3.955-1.065 2.874 1.371 3.534 2.24 3.534 4.655 0 2.95.014 2.958 2.093 1.076 5.491-4.969 4.688-8.789-2.193-10.44-2.698-.647-5.11-1.507-5.36-1.911-.249-.403 1.517-2.668 3.926-5.032l4.379-4.297-.554 4.132c-.305 2.272-.308 4.132-.008 4.132.301 0 2.238-2.363 4.305-5.25 2.068-2.887 4.189-5.7 4.713-6.25 1.432-1.5.008 15.097-1.824 21.265-2.249 7.574-5.274 10.69-10.378 10.69-4.782 0-4.814 1.117-.124 4.295 3.364 2.28 7.881 2.784 11.525 1.288 1.58-.649 2.893.04 6.25 3.279l4.25 4.099 4.25-4.171c3.195-3.136 4.623-3.936 5.75-3.224 2.68 1.694 8.568 1.071 12.025-1.271 4.69-3.178 4.658-4.295-.124-4.295-5.104 0-8.129-3.116-10.378-10.69C138 179.636 136.23 163 137.208 163c.276 0 2.396 2.7 4.711 6 2.315 3.3 4.454 6 4.754 6 .3 0 .362-1.575.137-3.5-.225-1.925-.14-3.5.188-3.5.741 0 8.002 7.38 8.002 8.133 0 .302-2.428 1.092-5.396 1.756-7.407 1.658-8.365 5.398-2.697 10.527 2.079 1.882 2.093 1.874 2.093-1.076 0-2.415.66-3.284 3.534-4.655 4.635-2.21 4.809-2.163 3.955 1.065-.823 3.106-1.473 15.25-.817 15.25.235 0 1.755-.687 3.378-1.526 2.845-1.471 2.95-1.777 2.95-8.603v-7.078l3.535 3.103c1.944 1.707 4.194 3.104 5 3.104.961 0 1.465 1.032 1.465 3 0 1.65.408 3 .906 3 .802 0 4.463-9.07 3.841-9.517-.136-.098-2.609-1.484-5.496-3.08-2.887-1.597-5.249-3.241-5.25-3.653-.002-1.383 5.739-.768 6.999.75 2.015 2.428 3 1.742 3-2.09 0-2.508-.673-4.134-2.234-5.398-2.172-1.759-2.371-1.739-7.213.715l-4.981 2.523-2.859-3.375c-1.572-1.856-3.71-4.547-4.751-5.98l-1.891-2.604 2.713.519c2.473.472 2.168-.093-3.45-6.396-3.389-3.803-7.942-8.635-10.117-10.739l-3.954-3.824 1.371-4.676c.753-2.572 1.996-9.851 2.761-16.176l1.391-11.499.107 17.083.107 17.082 4 3.215 4 3.214v-21.047c0-13.365.365-21.047 1-21.047.636 0 1 7.935 1 21.804v21.804l3.298 3.196c1.813 1.758 3.613 3.196 4 3.196.386 0 .702-11.7.702-26 0-16.667.359-26 1-26 .642 0 1 9.805 1 27.416v27.416l4 3.168 4 3.168v-32.584c0-21.056.354-32.584 1-32.584.647 0 1 11.805 1 33.416v33.416l4 3.168 4 3.168v-39.525c0-25.271.361-39.748 1-40.143.66-.408 1 13.258 1 40.245v40.863l3.298 3.196c1.813 1.758 3.624 3.196 4.023 3.196.4 0 .603-25.838.453-57.417-.271-56.775-.298-57.449-2.401-60.293l-2.126-2.875 2.376-2.763c2.912-3.386 3.05-5.001.354-4.145-1.112.353-5.841-.116-10.509-1.042-10.463-2.076-14.099-1.473-18.5 3.068-3.314 3.419-3.362 3.584-1.804 6.239.88 1.501 3.21 3.544 5.179 4.542 3.497 1.772 3.689 1.765 8.296-.272 5.537-2.45 6.322-1.855 6.346 4.804.018 5.302-1.935 8.796-6.907 12.36-3.994 2.863-15.984 7.279-22.62 8.332l-3.958.628-.322-7.244c-.177-3.985-1.548-12.122-3.046-18.083C139.359 61.783 138.8 58 139.53 58c.617 0 2.183-1.13 3.481-2.512l2.36-2.512-3.203.64c-2.423.485-4.723-.093-9.436-2.37-4.886-2.36-7.592-3.014-12.527-3.024-5.484-.012-6.491.285-7.811 2.3m10.722 1.146c-.226 2.276 1.069 4.198 2.467 3.662.779-.299 1.417-.932 1.417-1.406 0-.473-.636-.617-1.413-.319-.83.319-1.606-.209-1.884-1.282-.259-1.002-.523-1.297-.587-.655M41 57.3c0 3.148 1.816 4.7 5.5 4.7s5.5-1.552 5.5-4.7c0-2.121-.428-2.3-5.5-2.3s-5.5.179-5.5 2.3M204 56c0 .55 1.463 1.018 3.25 1.039l3.25.039-3.25 1.413C202.373 60.61 203.264 62 209.5 62c3.025 0 5.5-.45 5.5-1s-1.238-1.018-2.75-1.04l-2.75-.04 2.75-1.492c4.216-2.287 3.301-3.428-2.75-3.428-3.025 0-5.5.45-5.5 1M43.244 58.25c.624 1.901 5.393 2.139 6.097.304.47-1.226-.154-1.554-2.956-1.554-2.394 0-3.418.408-3.141 1.25M41 67.5c0 1.925.45 3.5 1 3.5s1-1.125 1-2.5.45-2.5 1-2.5 1 .9 1 2c0 1.111.667 2 1.5 2 .848 0 1.5-.895 1.5-2.059 0-1.154.451-1.78 1.027-1.425.564.349.905 1.163.756 1.809-.148.646.178 1.4.724 1.675.546.275 1.134-.963 1.306-2.75l.314-3.25H41v3.5m167.75-1.729c-2.613.869-4.75 2.102-4.75 2.74 0 .638 2.475 1.849 5.5 2.691 4.347 1.21 5.5 1.262 5.5.248 0-.706-.562-1.487-1.25-1.736-1-.362-1-.876 0-2.57 2.175-3.684 2.05-3.718-5-1.373m.063 2.912c.721.289 1.584.253 1.916-.079.332-.332-.258-.568-1.312-.525-1.165.048-1.402.285-.604.604M41.362 74.5c-.317.825-.326 2.15-.022 2.945.626 1.63 6.822 3.091 9.216 2.172 2.696-1.035.511-2.617-3.615-2.617C44.773 77 43 76.55 43 76s2.025-1 4.5-1 4.5-.45 4.5-1c0-1.693-9.977-1.224-10.638.5m163.305.167c-1.566 1.565-.491 3.34 2.083 3.439l2.75.107-2.75 1.086C202.007 81.174 203.364 83 209.5 83c5.258 0 7.442-1.346 3.75-2.311-1.427-.373-1.455-.478-.152-.573 1.062-.077 1.626-1.123 1.683-3.116.083-2.926-.033-3-4.681-3-2.622 0-5.067.3-5.433.667M49.638 82.5c-.38.99-1.946 1.5-4.607 1.5-2.217 0-4.031.45-4.031 1s2.025 1 4.5 1 4.5.45 4.5 1 .45 1 1 1 1-1.575 1-3.5c0-3.575-1.326-4.698-2.362-2M213 87.5c0 1.375-.45 2.5-1 2.5s-1-.9-1-2c0-1.111-.667-2-1.5-2s-1.5.889-1.5 2c0 1.1-.45 2-1 2s-1-.9-1-2-.45-2-1-2-1 1.35-1 3c0 2.97.056 3 5.5 3h5.5v-3.5c0-1.925-.45-3.5-1-3.5s-1 1.125-1 2.5M42.04 90.452c-1.914 2.306-.837 5.012 2.133 5.356 1.96.228 2.826-.231 3.309-1.75C47.841 92.926 48.61 92 49.19 92c.648 0 .567.588-.21 1.524-1.52 1.831-.688 2.962 1.547 2.104.983-.377 1.488-1.5 1.293-2.874-.444-3.129-5.365-3.764-6.302-.812C45.159 93.074 44.446 94 43.933 94c-1.24 0-1.194-1.721.067-2.5 1.233-.762 1.319-2.5.122-2.5-.482 0-1.419.653-2.082 1.452M213 96.5c0 2.296-.367 2.5-4.5 2.5-2.475 0-4.5.45-4.5 1s2.475 1 5.5 1h5.5v-3.5c0-1.925-.45-3.5-1-3.5s-1 1.125-1 2.5M42.2 99.2c-1.686 1.686-1.493 4.75.343 5.455 2.026.777 3.288-.523 1.55-1.598-1.874-1.158-.446-3.057 2.299-3.057 2.967 0 3.867.983 2.457 2.682-1.388 1.673-.488 2.777 1.608 1.973 1.836-.705 2.029-3.769.343-5.455-1.55-1.55-7.05-1.55-8.6 0m166 5.479c-2.365.837-4.129 2.034-3.92 2.66.467 1.403 9.634 4.1 10.555 3.106.366-.395.103-.92-.585-1.165-1.48-.529-1.699-4.28-.25-4.28.55 0 1-.45 1-1 0-1.32-1.601-1.16-6.8.679M41 108c0 .55.9 1 2 1 1.111 0 2 .667 2 1.5s-.889 1.5-2 1.5c-1.1 0-2 .45-2 1s2.475 1 5.5 1 5.5-.45 5.5-1-.9-1-2-1c-1.111 0-2-.667-2-1.5s.889-1.5 2-1.5c1.1 0 2-.45 2-1s-2.475-1-5.5-1-5.5.45-5.5 1m0 11.448c0 1.953.45 3.552 1 3.552s1-.9 1-2 .625-2 1.389-2 1.326.563 1.25 1.25c-.253 2.279 1.849 1.91 2.511-.441.625-2.217.925-1.944 1.215 1.105.074.778.73 1.613 1.456 1.857.959.322 1.234-.478 1-2.914-.315-3.297-.414-3.362-5.571-3.659l-5.25-.303v3.553m167.192-2.373c.197.591.786 1.075 1.308 1.075s1.111-.484 1.308-1.075c.197-.591-.391-1.075-1.308-1.075s-1.505.484-1.308 1.075M205.2 123.2c-3.146 3.146-.479 6.8 4.965 6.8 4.83 0 6.983-3.074 4.26-6.083-1.955-2.16-7.362-2.58-9.225-.717m1.282 1.83c-.389.629-.259 1.593.29 2.142 1.456 1.456 5.728.582 5.728-1.172 0-1.814-4.999-2.62-6.018-.97m-160.843 1.664c-1.126 1.126-.685 2.306.861 2.306.825 0 1.5-.423 1.5-.941 0-1.261-1.562-2.164-2.361-1.365m-4.255 7.748c-1.82 4.742 4.066 7.451 6.103 2.808.543-1.238 1.331-2.25 1.75-2.25 1.107 0 .935 1.428-.324 2.687-.687.687-.729 1.309-.113 1.689 1.696 1.049 3.725-2.32 2.535-4.21-1.696-2.693-4.088-2.516-5.624.416-1.061 2.024-1.624 2.368-2.241 1.37-.495-.802-.355-1.49.353-1.726 1.708-.57 1.444-2.226-.354-2.226-.843 0-1.781.649-2.085 1.442M204 134c0 .55 2.475 1 5.5 1s5.5-.45 5.5-1-2.475-1-5.5-1-5.5.45-5.5 1m1.031 4.463c-1.776 2.14-.853 4.856 2.139 6.29 4.933 2.364 10.105-1.503 7.791-5.825-1.453-2.715-5.961-2.609-5.961.139 0 1.651.427 1.932 2.118 1.395 1.531-.485 1.995-.296 1.672.683-.562 1.704-4.675 2.37-6.063.982-.723-.723-.673-1.487.164-2.496.708-.853.82-1.692.271-2.031-.515-.318-1.474.07-2.131.863M43.25 142.04c-2.584 1.029-2.96 4.126-.726 5.98 1.848 1.534 3.328.432 1.659-1.237-1.903-1.903-1.382-2.783 1.65-2.783 3.497 0 4.501.893 3.016 2.682-1.544 1.86-.267 2.91 1.627 1.338 4.016-3.333-1.793-8.141-7.226-5.98m170.417 5.627c-.367.366-.667 1.491-.667 2.5 0 1.008-.45 1.833-1 1.833s-1-.9-1-2c0-1.111-.667-2-1.5-2s-1.5.889-1.5 2c0 1.1-.45 2-1 2s-1-.9-1-2-.45-2-1-2-1 1.35-1 3c0 2.97.056 3 5.5 3h5.5v-3.5c0-3.597-.182-3.984-1.333-2.833M41 152c0 .55.9 1 2 1 1.111 0 2 .667 2 1.5s-.889 1.5-2 1.5c-1.1 0-2 .45-2 1s2.475 1 5.5 1 5.5-.45 5.5-1-.9-1-2-1c-1.111 0-2-.667-2-1.5s.889-1.5 2-1.5c1.1 0 2-.45 2-1s-2.475-1-5.5-1-5.5.45-5.5 1m172 7c0 1.704-.667 2-4.5 2-2.475 0-4.5.45-4.5 1s2.475 1 5.5 1c5.444 0 5.5-.03 5.5-3 0-1.65-.45-3-1-3s-1 .9-1 2m-171.616 2.442c-1.401 3.65.003 5.05 5.375 5.36 3.012.174 5.241-.121 5.241-.692 0-.547-1.913-1.133-4.25-1.303-2.337-.169-4.25-.757-4.25-1.307 0-.55 1.913-1.138 4.25-1.307 5.952-.431 5.324-2.193-.781-2.193-3.46 0-5.205.45-5.585 1.442m164.366 4.638c-.963.561-1.75 2.132-1.75 3.491 0 4.76 8.613 5.888 10.994 1.44 2.134-3.988-4.65-7.607-9.244-4.931m1.851 2.223c-1.594 1.165-1.619 1.437-.239 2.582 1.806 1.499 5.638.585 5.638-1.345 0-.729-.712-1.599-1.582-1.933-2.013-.773-1.741-.822-3.817.696M41 172c0 1.65.45 3 1 3s1-.9 1-2c0-1.704.667-2 4.5-2 2.475 0 4.5-.45 4.5-1s-2.475-1-5.5-1c-5.444 0-5.5.03-5.5 3m164.25 4.662c-2.42.977-1.406 5.031 1.566 6.262 5.027 2.082 10.071-1.174 8.014-5.174-.959-1.864-3.83-2.426-3.83-.75 0 .55.45 1 1 1s1 .675 1 1.5c0 .993-.993 1.5-2.941 1.5-3.076 0-4.82-1.412-3.075-2.49 2.362-1.46.974-2.94-1.734-1.848M41 180.5c0 1.925.45 3.5 1 3.5s1-1.162 1-2.583c0-1.633.46-2.423 1.25-2.147.688.241 1.118 1.178.956 2.084-.168.944.365 1.646 1.25 1.646.917 0 1.544-.88 1.544-2.167 0-1.191.332-1.835.737-1.429.406.405.743 1.375.75 2.155.027 2.932 2.026 1.806 2.326-1.309l.314-3.25H41v3.5m46.617 34.75c-2.394 3.771-4.04 13.09-2.741 15.519 2.355 4.4 9.476 4.053 11.237-.547.573-1.497 1.52-5.091 2.105-7.987.93-4.599.837-5.517-.732-7.25-2.544-2.811-8.009-2.664-9.869.265m73.481-.985c-4.395 2.26-4.73 3.994-2.255 11.679 1.371 4.257 3.03 7.453 4.192 8.075 2.673 1.43 6.785.186 8.615-2.608 1.403-2.142 1.349-2.906-.639-8.878-1.231-3.698-3.104-7.185-4.315-8.034-2.564-1.795-2.563-1.795-5.598-.234m-56.102 2.485c-.002.412-.659 4.785-1.459 9.716-1.474 9.084-1.197 10.474 2.096 10.519 1.228.016 2.332-3.141 2.353-6.735.008-1.238.464-2.25 1.014-2.25s1 2.039 1 4.531c0 3.233.459 4.708 1.601 5.146 2.31.886 3.482-1.518 3.256-6.677-.109-2.475.329-5.767.972-7.315 1.547-3.72.146-6.24-3.918-7.053-4.221-.844-6.91-.798-6.915.118m-13.473 1.5c-1.008 3.043-2.512 9.367-2.517 10.583-.003.734.529 1.155 1.183.937.951-.317 3.581-8.706 3.769-12.02.071-1.258-1.993-.834-2.435.5M140 219.849c0 1.567.291 6.292.647 10.5.607 7.184.79 7.651 3 7.651 2.122 0 2.353-.441 2.353-4.5 0-5.432 1.752-6.033 2.19-.75.262 3.168.703 3.796 2.841 4.045 2.41.281 2.512.091 2.147-4-.21-2.362-.75-4.686-1.198-5.163-.449-.477-.57-2.386-.269-4.242.776-4.777-.95-6.39-6.833-6.39-4.696 0-4.878.106-4.878 2.849m-18 6.651c0 7.167.314 8.814 2 10.5 2.403 2.403 4.786 2.538 7.777.443 2.015-1.411 2.223-2.392 2.223-10.5 0-8.873-.02-8.943-2.5-8.943-2.472 0-2.5.096-2.5 8.559 0 5.451-.363 8.335-1 7.941-.55-.34-1-4.191-1-8.559 0-7.804-.043-7.941-2.5-7.941-2.471 0-2.5.1-2.5 8.5m40-7.921c0 2.756 3.604 11.421 4.75 11.421 1.43 0 1.36-.456-1.224-7.944-1.047-3.035-3.526-5.48-3.526-3.477m-52.601 2.825c-1.036 2.698.162 4.285 1.436 1.904.772-1.441.826-2.399.161-2.811-.556-.343-1.274.065-1.597.907M145 223c0 1.1.45 2 1 2s1-.9 1-2-.45-2-1-2-1 .9-1 2" fill="#1976D2" fill-rule="evenodd"/><path fill-opacity=".981" d="M22.017 77.25c-.02 46.242.372 79.595.996 84.75 5.343 44.184 27.711 74.66 63.983 87.176 22.342 7.71 55.931 8.193 78.504 1.13 32.989-10.321 55.668-35.13 64.368-70.412C233.689 164.4 234 156.711 234 77.776V1H22.048l-.031 76.25m6.221 16 .319 77.25 2.346 8.5c10.951 39.663 35.781 62.824 74.478 69.474 11.436 1.965 34.516 1.981 45.591.032 37.899-6.669 62.575-29.323 73.745-67.7l2.709-9.306.327-77.75.328-77.75H27.919l.319 77.25m89.771-44.337c-6.075.649-6.71 1.536-5.547 7.737.54 2.878.978 3.345 2.642 2.817 2.128-.675 6.896 1.838 6.896 3.636 0 1.338-5.025.333-10.757-2.151-4.158-1.803-4.233-1.802-3.251.034.553 1.033 1.897 2.161 2.987 2.507 1.089.346 1.877 1.14 1.751 1.764-.271 1.338 7.048 4.042 8.957 3.31 2.917-1.12 1.346 5.877-2.637 11.74-2.426 3.572-4.205 7.544-4.621 10.317l-.676 4.51-4.127-.68c-7.394-1.219-19.02-5.317-23.941-8.438-5.772-3.662-9.151-10.013-8.154-15.329 1.054-5.617 1.756-6.092 5.574-3.764 5.005 3.051 8.489 2.683 12.495-1.323 1.87-1.87 3.4-3.848 3.4-4.396 0-1.866-6.946-7.103-10.229-7.713-1.815-.337-5.923.086-9.231.951-3.278.857-7.666 1.558-9.75 1.558-4.361 0-4.597.512-1.672 3.626l2.119 2.255-2.369 3.809L65.5 69.5l-.289 56.829-.289 56.828 4.039-3.246L73 176.665V135.21c0-35.805.195-41.293 1.428-40.27 1.211 1.005 1.339 7.096.843 40.123-.347 23.074-.216 38.925.322 38.908.499-.016 2.37-1.36 4.157-2.986l3.25-2.957v-33.597c0-26.434.267-33.509 1.25-33.181.965.322 1.25 7.74 1.25 32.584 0 17.692.249 32.166.554 32.166.304 0 1.992-1.484 3.75-3.298L93 159.405v-27.203c0-17.468.358-27.202 1-27.202s1 9.516 1 26.547v26.547l4-3.214 4-3.215v-21.916c0-17.088.275-21.824 1.25-21.498.945.315 1.25 5.34 1.25 20.584 0 11.091.249 20.166.554 20.166.304-.001 1.992-1.485 3.75-3.299l3.196-3.297.131-16.953c.098-12.589.343-15.665.952-11.952.451 2.75 1.497 9.275 2.324 14.5.826 5.225 1.802 10.52 2.169 11.767.559 1.902-.884 3.844-8.955 12.059-5.292 5.386-9.621 10.062-9.621 10.39 0 .328.9.361 2 .074 2.896-.758 2.509.31-2.202 6.071-2.311 2.827-4.32 5.31-4.464 5.52-.144.209-2.767-.636-5.828-1.878-5.353-2.173-5.641-2.191-7.536-.476-1.249 1.131-1.97 3.071-1.97 5.302v3.52l2.325-2.185c1.801-1.692 3.041-2.041 5.5-1.549 1.746.349 3.174.916 3.173 1.26-.002.344-2.477 1.918-5.5 3.498-5.912 3.089-6.028 3.337-4.012 8.627l1.333 3.5.726-3.305c.448-2.034 1.205-3.121 1.97-2.828.684.263 2.736-1.063 4.56-2.945 1.825-1.882 3.567-3.423 3.871-3.424.305-.002.409 3.286.232 7.306-.311 7.051-.23 7.351 2.297 8.503 3.59 1.635 3.829 1.542 3.135-1.224-.334-1.33-.187-2.567.327-2.75.553-.198.4-2.876-.378-6.583-.721-3.437-1.124-6.25-.895-6.25.229 0 2.198.909 4.376 2.02 3.006 1.534 3.96 2.618 3.96 4.5 0 3.126 1.001 3.103 3.316-.077 3.125-4.292 1.928-6.587-4.316-8.273-3.025-.817-5.725-1.687-6-1.933-.275-.246 1.75-2.441 4.5-4.877l5-4.43.608 3.785c.335 2.082.687 3.335.782 2.785.096-.55 2.001-3.475 4.234-6.5l4.059-5.5-.512 10c-.62 12.106-1.83 16.473-5.829 21.027-2.405 2.74-3.799 3.473-6.601 3.473-3.484 0-3.517.037-1.746 1.994 2.569 2.839 7.749 4.053 12.129 2.844 3.421-.944 3.843-.788 7.5 2.784l3.876 3.784 3.876-3.784c3.657-3.572 4.079-3.728 7.5-2.784 4.38 1.209 9.56-.005 12.129-2.844 1.771-1.957 1.738-1.994-1.746-1.994-2.802 0-4.196-.733-6.601-3.473-1.677-1.91-3.559-5.172-4.183-7.25-1.148-3.825-2.652-24.198-1.718-23.277.279.275 2.36 3.162 4.625 6.416l4.118 5.916v-7.518l5 4.186c2.75 2.302 5 4.506 5 4.896 0 .39-2.588 1.381-5.75 2.203-6.512 1.691-7.756 3.963-4.566 8.344 2.315 3.18 3.316 3.203 3.316.077 0-1.896.964-2.971 4.097-4.569 2.253-1.15 4.259-1.928 4.458-1.729.199.199-.261 3.037-1.021 6.308-.863 3.713-1.021 6.169-.419 6.541.614.379.6 1.549-.039 3.228l-1.001 2.633 3.534-1.685 3.534-1.685-.322-7.284c-.176-4.005-.072-7.282.233-7.28.304.001 2.046 1.542 3.871 3.424 1.824 1.882 3.876 3.208 4.56 2.945.765-.293 1.522.794 1.97 2.828l.726 3.305 1.333-3.5c1.986-5.211 1.929-5.331-4.011-8.535-3.023-1.631-5.498-3.251-5.5-3.602-.001-.35 1.46-.863 3.247-1.14 2.383-.369 3.85.047 5.5 1.561l2.25 2.065v-3.652c0-2.712-.595-4.041-2.313-5.167-2.11-1.382-2.77-1.323-7.478.666-2.84 1.2-5.309 1.984-5.485 1.743-.176-.241-2.211-2.751-4.522-5.578-4.711-5.761-5.098-6.829-2.202-6.071 1.1.287 2 .282 2-.011 0-.294-4.306-5.021-9.569-10.505-6.098-6.353-9.366-10.5-9.009-11.431.65-1.694 3.132-15.892 4.43-25.343.762-5.543.912-3.989 1.021 10.554l.127 17.054 3.298 3.196c1.813 1.758 3.613 3.196 4 3.196.386 0 .702-9.225.702-20.5 0-17.435.221-20.5 1.48-20.5 1.281 0 1.397 2.933.862 21.75l-.618 21.75 4.138 3.297 4.138 3.297v-25.988c0-16.247.375-26.22 1-26.606.657-.406 1 8.758 1 26.745v27.363l3.298 3.196c1.813 1.758 3.501 3.196 3.75 3.195.248-.001.61-14.288.802-31.75.193-17.462.755-32.176 1.25-32.699.534-.564.9 12.755.9 32.764v33.714l3.25 2.957c1.787 1.626 3.582 2.97 3.989 2.986.406.016.856-17.858 1-39.721.143-21.863.618-39.525 1.054-39.25.435.275.764 18.755.729 41.066l-.063 40.566 4.02 3.231 4.021 3.231V71.339l-2.304-4.552c-2.235-4.414-2.25-4.619-.5-6.78 2.624-3.241 2.254-4.005-1.946-4.022-2.062-.008-6.591-.684-10.063-1.503-6.88-1.622-10.211-1.222-14.439 1.733-5.019 3.509-5.308 5.425-1.406 9.327 4.039 4.039 7.524 4.447 12.432 1.454 1.801-1.098 3.454-1.996 3.673-1.996 1.143 0 2.665 7.59 2.112 10.536-1.615 8.609-10.978 14.181-31.662 18.842l-2.603.586-.588-8.732c-.323-4.803-1.704-12.993-3.07-18.202-2.523-9.622-2.548-11.03-.199-11.03.725 0 1.878-.675 2.563-1.5 1.069-1.289.699-1.506-2.628-1.54-2.322-.023-6.073-1.224-9.372-2.999-3.025-1.629-5.95-2.887-6.5-2.798-.55.09-3.471.427-6.491.75M123 52.941c0 2.745 1.904 3.584 3.81 1.677 1.491-1.491 1.484-1.618-.096-1.618-.943 0-1.714-.45-1.714-1s-.45-1-1-1-1 .873-1 1.941m-81.506 3.068c-1.117 1.808.584 4.973 3 5.579C48.529 62.601 51 61.212 51 57.933 51 55.129 50.804 55 46.559 55c-2.443 0-4.722.454-5.065 1.009M205 56c0 .55 1.238 1.019 2.75 1.042l2.75.042-3.288 1.753c-1.808.965-2.971 2.071-2.583 2.458 1.176 1.177 10.371.815 10.371-.408 0-.669-1.199-.938-3-.674-1.65.242-3 .123-3-.265s1.35-1.265 3-1.948c4.431-1.836 3.655-3-2-3-2.75 0-5 .45-5 1M43 58.563c0 1.156.828 1.482 3.173 1.25 4.584-.452 4.929-2.813.41-2.813C44 57 43 57.436 43 58.563M41 67.5c0 1.375.45 2.5 1 2.5s1-.9 1-2c0-2.744 2.758-2.535 3.294.25l.434 2.25.136-2.25c.075-1.237.78-2.25 1.566-2.25.787 0 1.626 1.013 1.864 2.25.372 1.929.453 1.858.57-.5C50.995 65.099 50.821 65 46 65c-4.667 0-5 .167-5 2.5m167.322-1.174c-4.857 1.794-4.819 2.317.302 4.062 5.322 1.813 7.76 2.066 5.126.532-.963-.561-1.75-1.65-1.75-2.42s.787-1.859 1.75-2.42c1.604-.934 1.584-1.015-.25-.974-1.1.026-3.43.574-5.178 1.22M208 68c-1.213.784-1.069.972.75.985 1.238.008 2.25-.435 2.25-.985 0-1.253-1.061-1.253-3 0M42.011 74.487c-2.318 2.793-.454 4.524 4.708 4.371l4.781-.142-4-.608c-2.619-.398-4-1.126-4-2.108 0-.982 1.381-1.71 4-2.108l4-.608-4.128-.142c-2.58-.089-4.59.416-5.361 1.345M204 75.971c0 .535 1.463 1.377 3.25 1.873 3.29.912 3.179 1.075-1.813 2.649-3.071.968-.233 2.507 4.622 2.507 5.264 0 6.787-1.588 2.191-2.284l-2.75-.416 2.75-.15c3.961-.216 3.383-1.792-1-2.729l-3.75-.801 4-.668c3.785-.632 3.691-.676-1.75-.81-3.162-.078-5.75.295-5.75.829M50 82.945c0 .52-2.138 1.114-4.75 1.32l-4.75.375 4.677.18c3.517.135 4.79.614 5.134 1.93.251.963.509.287.573-1.5.064-1.787-.109-3.25-.384-3.25s-.5.425-.5.945M204 89c0 2.97.056 3 5.5 3s5.5-.03 5.5-3c0-3.485-1.709-4.072-2.18-.75-.406 2.856-2.192 2.554-2.723-.46l-.402-2.29-.598 2.309c-.737 2.849-2.485 2.987-2.917.231-.493-3.152-2.18-2.409-2.18.96M41.357 91.513C40.671 93.299 42.65 96 44.644 96c.769 0 1.911-1.125 2.538-2.5 1.536-3.372 3.205-3.195 2.361.25-.617 2.513-.537 2.615.928 1.178C52.435 93 51.496 90 48.928 90c-1.022 0-2.339.9-2.928 2s-1.505 2-2.035 2c-1.414 0-1.179-2.747.285-3.338.735-.296.516-.537-.531-.583-.98-.043-2.043.602-2.362 1.434M213 96.945c0 1.602-.84 2.012-4.75 2.32-4.698.37-4.686.376 1 .555 5.515.173 5.75.078 5.75-2.32 0-1.375-.45-2.5-1-2.5s-1 .875-1 1.945M42.441 99.441c-1.524 1.132-1.711 1.817-.87 3.191.59.962 1.715 1.944 2.5 2.183 1.151.35 1.186.177.179-.89-2.33-2.47-1.473-4.073 2-3.738 2.807.27 3.212.653 2.968 2.809-.271 2.405-.216 2.43 1.5.686 1.711-1.739 1.688-1.888-.579-3.747-2.812-2.305-5.064-2.45-7.698-.494m167.358 5.198c-6.203 1.838-6.58 2.81-1.662 4.284 2.239.671 4.812 1.489 5.717 1.818 1.327.482 1.26.159-.341-1.662-1.953-2.222-1.954-2.283-.073-3.659 2.846-2.081 1.629-2.342-3.641-.781M208 107c0 .55.675 1 1.5 1s1.5-.45 1.5-1-.675-1-1.5-1-1.5.45-1.5 1m-164.691 1.722c1.977.297 2.713.92 2.484 2.1-.179.923-1.074 1.684-1.989 1.691-.914.007-1.995.344-2.4.75-.406.405 1.588.737 4.429.737 2.842 0 5.167-.4 5.167-.889s-.77-.826-1.712-.75c-2.713.22-2.802-3.131-.096-3.648 1.269-.242-.167-.434-3.192-.427-3.025.008-4.236.204-2.691.436M209 117c0 .55.45 1 1 1s1-.45 1-1-.45-1-1-1-1 .45-1 1m-168 2.441c0 1.343.45 2.719 1 3.059.567.351 1-.49 1-1.941 0-3.203 2.688-3.456 3.294-.309l.434 2.25.136-2.25c.194-3.2 2.92-2.802 3.42.5.387 2.56.427 2.525.566-.5L51 117h-5c-4.634 0-5 .178-5 2.441m164.571 4.13c-.864.865-1.571 1.958-1.571 2.429 0 1.786 3.249 4 5.871 4 3.136 0 5.129-1.618 5.129-4.165 0-3.516-6.593-5.099-9.429-2.264m1.096 1.096c-1.268 1.268-.66 3.201 1.192 3.788 2.686.853 5.141-.371 5.141-2.562 0-1.412-.72-1.893-2.833-1.893-1.559 0-3.134.3-3.5.667M45.5 128c.34.55.816 1 1.059 1s.441-.45.441-1-.477-1-1.059-1-.781.45-.441 1m-3.489 6.487c-1.763 2.124-.498 4.513 2.39 4.513 1.586 0 2.69-.713 3.099-2 .349-1.1 1.107-2 1.684-2s.814.9.526 2c-.564 2.158.777 2.813 1.536.75 1.366-3.716-3.352-5.29-5.246-1.75-1.539 2.876-3.349 2.526-2.589-.5.719-2.865.355-3.128-1.4-1.013m164.757-.762c1.797.222 4.497.218 6-.01 1.503-.229.032-.411-3.268-.405-3.3.005-4.529.192-2.732.415m-2.161 5.857c-.812 2.117-.828 2.054.964 3.847 3.352 3.351 10.053 1.084 9.253-3.131-.447-2.354-5.824-3.152-5.824-.864 0 .861.45 1.566 1 1.566s1-.45 1-1 .45-1 1-1 1 .852 1 1.893c0 2.217-2.464 3.412-5.226 2.535-1.472-.467-1.797-1.201-1.34-3.022.666-2.654-.861-3.343-1.827-.824m-162.596 3.905c-1.585 1.91-.595 4.517 1.708 4.498 1.419-.013 1.497-.195.385-.899-1.83-1.159-.667-4.09 1.615-4.071 2.767.024 4.635 1.62 3.958 3.384-.338.881-.226 1.601.247 1.601 1.668 0 1.973-2.96.462-4.471-1.951-1.951-6.771-1.975-8.375-.042M204 151c0 2.97.056 3 5.5 3s5.5-.03 5.5-3c0-1.65-.45-3-1-3s-1 1.162-1 2.583c0 3.216-2.193 2.747-3.07-.657l-.625-2.426-.402 2.422c-.564 3.389-2.903 3.923-2.903.661 0-1.421-.45-2.583-1-2.583s-1 1.35-1 3m-162 1c0 .55.9 1 2 1 3.038 0 2.397 2.807-.75 3.284-1.513.229-.275.422 2.75.43 3.025.007 4.487-.181 3.25-.42-2.785-.536-2.994-3.294-.25-3.294 1.1 0 2-.45 2-1s-2.025-1-4.5-1-4.5.45-4.5 1m171 7c0 1.667-.667 2-4 2-2.2 0-4 .475-4 1.055 0 .634 1.893.933 4.75.75 4.35-.279 4.777-.537 5.066-3.055.174-1.512-.163-2.75-.75-2.75-.586 0-1.066.9-1.066 2m-170.25 2.08c-3.921 2.284-.737 5.92 5.184 5.92 1.686 0 3.066-.45 3.066-1s-1.8-1-4-1c-2.889 0-4-.417-4-1.5s1.111-1.5 4-1.5c2.2 0 4-.45 4-1 0-1.298-5.984-1.24-8.25.08m162.18 6.504c-2.111 2.544.094 4.916 4.57 4.916 2.442 0 4.154-.59 4.833-1.666 1.535-2.433-.866-4.834-4.833-4.834-1.79 0-3.847.713-4.57 1.584m1.45.868c-.815 2.123.413 3.548 3.057 3.548 3.03 0 4.957-2.206 3.339-3.824-1.645-1.645-5.726-1.469-6.396.276M41 172.5c0 1.375.45 2.5 1 2.5s1-.874 1-1.943c0-1.558.84-2.018 4.25-2.325 4.063-.366 4.019-.39-1-.557-4.98-.166-5.25-.046-5.25 2.325m163.93 5.084c-2.111 2.544.094 4.916 4.57 4.916 4.495 0 6.68-2.373 4.55-4.94-.734-.885-1.56-1.383-1.835-1.108-.275.275.02 1.126.655 1.891 1.691 2.038-1.108 4.065-4.454 3.225-2.178-.546-2.509-1.063-1.994-3.112.716-2.855.338-3.077-1.492-.872m-163.347.166c-.984.985-.646 5.25.417 5.25.55 0 1-.9 1-2 0-2.744 2.758-2.535 3.294.25l.434 2.25.136-2.25c.075-1.238.78-2.25 1.566-2.25.787 0 1.626 1.012 1.864 2.25.322 1.672.469 1.437.57-.917.133-3.098.04-3.166-4.281-3.166-2.429 0-4.679.262-5 .583m47.156 37c-.865.963-2.154 4.587-2.866 8.054-1.574 7.661-.718 9.565 4.503 10.008 3.409.289 3.788.041 5.241-3.437.861-2.062 1.812-6.128 2.112-9.035.519-5.036.418-5.334-2.157-6.313-3.757-1.428-5.022-1.294-6.833.723m71.011.33c-2.221 1.294-2.17 5.787.141 12.351 2.077 5.902 3.949 7.368 7.703 6.031 4.479-1.596 5.009-3.516 2.896-10.494-1.035-3.419-2.501-6.836-3.257-7.593-1.609-1.608-4.998-1.742-7.483-.295m-68.095 1.67c-1.012 1.639-3.4 12.171-2.879 12.693 1.691 1.691 3.148-.12 4.539-5.639.858-3.408 1.337-6.558 1.064-7-.625-1.012-2.115-1.041-2.724-.054m13.846.62c-.389 1.28-2.501 16.2-2.501 17.671 0 .527.9.959 2 .959 1.449 0 2-.667 2-2.418 0-3.523 1.004-5.582 2.721-5.582 1.218 0 1.377.859.831 4.5-.601 4.012-.465 4.5 1.256 4.5 1.447 0 2.079-.915 2.524-3.656.326-2.011.209-4.342-.26-5.181-.544-.971-.349-2.029.537-2.915 1.695-1.695 1.827-5.86.218-6.855-2.362-1.46-8.972-2.185-9.326-1.023m37.487.323-2.513.394.683 8.207c.376 4.513.719 8.769.762 9.456.044.688.871 1.25 1.837 1.25 1.469 0 1.699-.738 1.4-4.5-.278-3.485-.021-4.5 1.135-4.5 1.778 0 2.708 2.088 2.708 6.082 0 2.292.448 2.918 2.088 2.918 1.9 0 2.025-.383 1.387-4.25-.386-2.338-1.122-4.772-1.637-5.411-.59-.732-.548-1.4.113-1.809 1.577-.974 1.261-5.175-.522-6.959-1.549-1.548-2.471-1.656-7.441-.878m18.593.177c-.998 1.614 3.512 13.13 5.142 13.13 1.834 0 1.368-4.452-1.078-10.306-1.498-3.587-2.964-4.605-4.064-2.824m-39.052 8.88c.39 4.813 1.16 9.313 1.712 10 1.487 1.852 6.209 1.515 8.104-.579 1.256-1.387 1.655-3.8 1.655-10 0-7.448-.173-8.171-1.96-8.171-1.764 0-1.988.822-2.25 8.25-.23 6.538-.601 8.25-1.79 8.25s-1.56-1.712-1.79-8.25c-.266-7.555-.464-8.25-2.34-8.25-1.964 0-2.02.366-1.341 8.75m-13.873-4.544c-.692 2.647-.257 3.239 1.801 2.449 1.917-.736 2.051-4.655.16-4.655-.761 0-1.643.993-1.961 2.206m35.984-1.432c-.874 1.414.509 5.343 1.737 4.934 1.48-.494 1.451-4.932-.035-5.427-.637-.213-1.403.009-1.702.493" fill="#1976D2" fill-rule="evenodd"/></svg>